<svg id="Layer_1" data-name="Layer 1" xmlns="http://www.w3.org/2000/svg" xmlns:xlink="http://www.w3.org/1999/xlink" viewBox="0 0 566.93 566.93"><defs><style>.cls-1{fill:#008ece;}.cls-1,.cls-2,.cls-3{fill-rule:evenodd;}.cls-2{fill:url(#GradientFill_1);}.cls-3{fill:#fff;}</style><linearGradient id="GradientFill_1" x1="132.11" y1="215.78" x2="373.69" y2="215.78" gradientUnits="userSpaceOnUse"><stop offset="0" stop-color="#0286c8"/><stop offset="1" stop-color="#30b7b9"/></linearGradient></defs><path class="cls-1" d="M35.63,462.65a.2.2,0,0,0,.22.22H49.16a.2.2,0,0,0,.22-.22V446.24a.19.19,0,0,1,.22-.22h1.1c.08,0,.15.07.22.15l10.59,16.7c.08.07.15.14.23.14H77.62c.22,0,.37-.07.37-.14a.25.25,0,0,0-.08-.22l-.36-.15L65.12,442.89c-.08-.08-.08-.08-.08-.15s0-.07.08-.15a17.39,17.39,0,0,0,5.51-13.19,18.12,18.12,0,0,0-7-14.66L51.73,426.55h2.58a2.94,2.94,0,0,1,.07,5.83H49.45a.19.19,0,0,1-.22-.21v-2.85l-13.6,13.49v19.84Zm-.15-24.29L61,413.06a23,23,0,0,1,2.5,1.53l-12.06,12H49.38a.19.19,0,0,0-.22.22v2L35.48,442.38v-4Zm24.86-25.3L35.26,437.93v-3.72l21.55-21.37c.22-.22.44-.36.66-.58l.22-.22a15.94,15.94,0,0,1,2.94.87l-.22.22-.07-.07Zm-3.46-1.17-21.47,21.3v-3.5L53.5,411.75h1.4a18.82,18.82,0,0,1,2,.14ZM35.41,428.74v-3.21l13.9-13.78h3.23l-17.13,17Zm0-4.67v-3l9.48-9.4h3l-12.5,12.39Zm.36-4.45v-2.69l5-5,2.79-.08-7.8,7.73Zm39,22.76,30.45-30.19a23.43,23.43,0,0,1,9.56,6.56l.07.07c4.64,5,6.92,11.16,6.92,18.52a26.22,26.22,0,0,1-6.92,18.53,21.84,21.84,0,0,1-16.76,7.65c-12,0-21.55-9.77-23.32-21.14ZM89,437.71c0,5.32,2.94,12,9.19,12s9.19-6.71,9.19-12-3.09-12.18-9.19-12.18-9.19,7-9.19,12.18Zm-14.64.65,27.21-27a25.86,25.86,0,0,1,3.24.81L74.68,442a28.73,28.73,0,0,1-.37-3.65Zm.15-.51v-.43a25.46,25.46,0,0,1,.22-3.43l23-22.83h.44a20.89,20.89,0,0,1,3,.22L74.46,437.85Zm.15-4.88a24,24,0,0,1,1-4.52L92.4,411.82a20.24,20.24,0,0,1,4.12-.66l.22-.07L74.61,433Zm16.32-20.86L76.15,426.77c2.57-6.42,8.09-12.32,14.78-14.66Zm44,30.48v.15l-.07,19.91a.2.2,0,0,0,.22.22h14a.2.2,0,0,0,.22-.22l-.08-19.91v-.15l17.51-30.33a.29.29,0,0,1,.07-.15c0-.14-.15-.22-.29-.22h-1L134.84,442.3l.14.29Zm0-.65-1.47-2.55,28.1-27.86h4L135,441.94Zm-3.38-5.11,25.3-25.08h3.75L133,439.24l-1.4-2.41Zm.15-.94-1.25-2.19L141,423.27l1.25,2.26-10.52,10.36Zm-2-2.7-1.17-2,10.66-10.51,1.1,2.12h-.07l-10.52,10.43Zm26.63-21.66-12.87,12.76,3.89-7.36,5.37-5.33,3.61-.07Zm-29.57,17.06L137.49,418l1,2-10.59,10.5-1.1-1.9Zm-.22-1.31-1-1.75,10.81-10.72.88,1.9L126.6,427.28Zm-1.76-2.84-.89-1.53,10.81-10.72.89,1.53-10.81,10.72Zm-2.06-2.63,10-9.92h-2.21l-8.6,8.54.81,1.38Zm-1.7-2.92,7.07-7-1.92-.07-5.88,5.84.73,1.23ZM119,414.74l.59,1.09,4.12-4.08-1.62-.07L119,414.74Zm32.66-3.14-3.09,3.07,1.54-2.92c.07-.07.15-.15.22-.15Zm1.69,51.27a.2.2,0,0,1-.22-.22v-.08l8.6-20.05,19.64-19.47,17,39.6.07-.08v.08a.2.2,0,0,1-.22.22H184.41c-1.77,0-1.55,0-1.55-.22l-2.35-8.9a.17.17,0,0,0-.15-.15H172c-1.18,0-1.11.15-1.11.22l-2.35,8.9a.16.16,0,0,1-.15.15Zm8.45-20.79,3-6.92L180,420.06l1.18,2.77-19.42,19.25ZM179.7,419.7l-14.56,14.44,2.79-6.49,10.67-10.58,1.1,2.63Zm-1.32-3.28-1-2.48-6.18,6.12-2.58,6.05,9.79-9.69Zm-4.64,25.44v.08a.2.2,0,0,0,.22.22h3a1,1,0,0,1,.37.07c.29,0,.36-.07.36-.22v-.15L176,435.67a.23.23,0,0,0-.44,0l-1.77,6.19ZM172,418.24l5-5-.52-1.17a.15.15,0,0,0-.14-.14h-1.25l-.67.65L172,418.24Zm29.49,44.41a.2.2,0,0,0,.22.22H239.2a.2.2,0,0,0,.22-.22V448.57a.2.2,0,0,0-.22-.22v-.07H215.52c-.15,0-.23-.07-.23-.22V428.63l-13.82,13.73v20.29ZM215.52,428l-13.83,13.74v-4l13.9-13.82-.07,4.09Zm-13.9,9.29v-3.73l13.82-13.74v3.72l-13.82,13.75Zm14-18.63-13.9,13.8v-3.51l13.9-13.81v3.52Zm-.14-4.39v-2.49c0-.15-.08-.22-.23-.22h-.22l-13.45,13.38v3.21l13.9-13.88Zm-2.14-2.42h-3l-9,8.92v3l12-11.91ZM209,411.6l-2.79.08-4.64,4.6V419L209,411.6Zm58.39,30.85v20.2a.2.2,0,0,0,.22.22H280.9a.2.2,0,0,0,.22-.22V428.81l-13.76,13.64Zm-.14-4.16L281,424.66v4L267.22,442.3v-4Zm14-14.51-13.82,13.71v-3.72l13.82-13.71v3.72Zm-13.75,9-.15-3.35,13.83-13.71v3.5l-13.68,13.56Zm13.61-18.08v-2.63a.2.2,0,0,0-.22-.22h-.15l-13.39,13.28v3.2l13.76-13.63Zm-1.84-2.7-2.94-.07-9,9v3l12-11.89Zm-4.49-.15L272,412l-4.64,4.59v2.7l7.43-7.37ZM286,442.74v19.91a.2.2,0,0,0,.22.22H299.5a.2.2,0,0,0,.22-.22v-21.3c0-.21.08-.29.15-.29s.15.08.22.15l23.17,21.58a.25.25,0,0,0,.22.08h2.28a.2.2,0,0,0,.22-.22V412.11a.2.2,0,0,0-.22-.22l-.08.08h-8.6l-4.93,4.88v16.63c0,.22-.07.29-.14.29s-.15-.07-.23-.15c-1.1-1.09-4.41-4.3-8.53-8L286,442.74Zm.07-4.3L301,423.63a11.71,11.71,0,0,0,1.11.95l.95,1-7.06,7,.15-.22-10.08,10v-3.94Zm-.22-4.16,12.8-12.69,2,1.75L285.82,438v-3.72Zm12.43-13.12L285.9,433.41v-3.5l10.59-10.5,1.76,1.75ZM285.82,429v-3.21l8.31-8.24,1.7,1.53-10,9.92Zm-.14-4.3v-3l6.1-6.06,1.54,1.46-7.64,7.59Zm0-4.74v-2.63l3.82-3.79a10.39,10.39,0,0,1,1.4,1.24l-5.22,5.18Zm26.4-3.36v-4l.66-.66h4.05l-4.71,4.67Zm28.83,25.67L350,462.72c.07.07.14.15.22.15h2.65c.07,0,.14-.08.22-.15l22.43-50.53v-.08a.2.2,0,0,0-.22-.22l-.15.08h-3.75L352,431.22l-.29.8v.07a.23.23,0,0,1-.44,0l-.08-.07-10.29,10.21ZM371.06,412l-19,18.81,2.42-6.42L367,412Zm-30.37,30-1.25-2.77L350,428.74l1.1,2.92L340.69,442Zm-1.4-3.14-1.18-2.62,10.74-10.65,1,2.7-10.59,10.57Zm-1.25-3.2-1.1-2.41,10.88-10.79,1,2.55L338,435.67Zm-2.43-5.4,11-10.86,1,2.33-10.89,10.79-1-2.26Zm-1.32-3.14,11.1-11,.81,2.12-11,10.94-.88-2.05Zm32.36-15.24-11.47,11.38,2.28-6,5.44-5.4Zm-33.83,12.33L344,413.13l.81,1.9-11.18,11.08-.81-1.89Zm-1.25-3.06,9.48-9.41h2.43L332.3,422.83l-.73-1.67Zm-.59-1.54,7.94-7.87h-2.2l-6.4,6.34.66,1.53Zm-2.06-4.44.59,1.31,4.78-4.74-2,.07-3.38,3.36Zm28.83.87,1.47-3.86a.15.15,0,0,1,.15-.15l2.5-.07-4.12,4.08Zm17,26.33,30.44-30.19a23.46,23.46,0,0,1,9.57,6.56l.07.07a28.29,28.29,0,0,1,0,37.05,21.85,21.85,0,0,1-16.77,7.65c-12,0-21.55-9.77-23.31-21.14Zm14.19-4.67c0,5.32,2.94,12,9.19,12s9.2-6.71,9.2-12-3.09-12.18-9.2-12.18-9.19,7-9.19,12.18Zm-14.63.65,27.21-27a26.19,26.19,0,0,1,3.23.81L374.66,442a28.74,28.74,0,0,1-.36-3.65Zm.14-.51v-.43a27.21,27.21,0,0,1,.22-3.43l23-22.83h.44a21.14,21.14,0,0,1,3,.22l-26.7,26.47Zm.15-4.88a24.07,24.07,0,0,1,1-4.52l16.77-16.63a20.13,20.13,0,0,1,4.12-.66l.22-.07L374.59,433Zm16.33-20.86c-6.7,2.34-12.21,8.24-14.78,14.66l14.78-14.66Zm35.74,30.34v20.2a.2.2,0,0,0,.22.22h13.31a.2.2,0,0,0,.22-.22V428.81l-13.75,13.64Zm-.15-4.16,13.76-13.63v4L426.51,442.3v-4Zm14.05-14.51-13.83,13.71v-3.72l13.83-13.71v3.72Zm-13.75,9-.15-3.35,13.83-13.71v3.5l-13.68,13.56Zm13.6-18.08v-2.63a.2.2,0,0,0-.22-.22H440l-13.38,13.28v3.2l13.75-13.63Zm-1.84-2.7-2.94-.07-9,9v3l12-11.89Zm-4.48-.15-2.8.08-4.63,4.59v2.7l7.43-7.37Zm14.78,38.29c3.9,7.58,11.33,13.2,20.37,13.2,10.67,0,21-7.95,23.32-20.79,0-.21-.08-.29-.3-.29l-.07.08H477.41c-1.7,3.71-4.86,5.76-8.17,5.76a8.09,8.09,0,0,1-6.4-3.21,9.74,9.74,0,0,1-2.5-4.67c-.14-1.39-.22-2.33-.22-2.92a13.55,13.55,0,0,1,.88-4.66c1.18-3.28,4.27-6.42,8.32-6.42,3.6,0,6.61,2.55,8.09,5.76,2.42,0,4.55-.07,6.25-.07s4.92.07,6.84.07,1.91,0,1.91-.29c-1.55-8.68-7.58-16.77-16-19.69l-30.37,30.12a25.86,25.86,0,0,0,2.79,8Zm-3.53-11.67,27.43-27.2a17,17,0,0,1,3.24.88l-13.39,13.27v.07l-16.84,16.7a31.43,31.43,0,0,1-.44-3.72Zm27-27.2-26.7,26.47a37.31,37.31,0,0,1,.22-3.94l22.95-22.75h.44a21.41,21.41,0,0,1,3.09.22ZM445.71,433a24.24,24.24,0,0,1,1.1-4.52l16.84-16.7a20.24,20.24,0,0,1,4.12-.66L445.71,433Zm1.69-6.2c2.65-6.71,7.79-12.25,14.63-14.51L447.4,426.84Zm50.3,15.61v20.2a.2.2,0,0,0,.22.22h33a.2.2,0,0,0,.23-.22V448.57a.2.2,0,0,0-.23-.22l.08-.14H511.75a.19.19,0,0,1-.22-.22v-4.81a.19.19,0,0,1,.22-.22h10.08a.2.2,0,0,0,.22-.22V431.51a.2.2,0,0,0-.22-.22H511.75a.19.19,0,0,1-.22-.22v-2.33L497.7,442.45ZM531,426.26a.19.19,0,0,0,.22-.22V412a.19.19,0,0,0-.22-.22h-2.5l-14.64,14.51Zm-33.61,12L524,412h4l-14.78,14.65h-1.76a.2.2,0,0,0-.22.22v1.75L497.41,442.3v-4Zm.29-.73v-3.72l22.14-21.95h3.75L497.7,437.56Zm-.22-7.95,17.65-17.5h3.53l-21.18,21v-3.5Zm.08-4.44L510.87,412h3.23l-16.54,16.4v-3.2Zm.22-1.54,12-11.88h-3l-9,8.89v3Zm6.91-11.44H502l-4.63,4.59v2.7Z"/><path class="cls-2" d="M153.48,114.37h163l57.22,56.7v207.3H153.48v-157H132.11l33-44.4L198,221.32H176.51v133.5H350.66V184.5L305.4,137.92H176.51v40.71l-11.4-15.4-11.63,15.64v-64.5Zm45.68,46v8.25h70.2v-8.25Zm192.15-57.36A90.17,90.17,0,0,1,397.8,88.2l-1.34.49c-6.21,3.29-11.9,6.11-18.87,7.67-7.6,1.7-13.67,2.9-22.35.8-13.77-3.33-23.05-14-27.56-26.8l-2.29-8.22-8.81,32.32c3.27.28,5.32-1.33,13.52,2.81,19.87,10,51.18,39.69,60.22,59.89.47,1,.77,1.81,1.2,2.79L393,166a24.44,24.44,0,0,0,.2,3.46c1.84-.87,5.57-1.75,7.79-2.46,5.81-1.86,20.15-5.3,24-7.1-6.56-2.09-6.47-.78-15.35-5a38.89,38.89,0,0,1-17.13-16.27c-6.08-11-4.87-24.29-1.22-35.58Zm37.36,54.38-3.35.31,2.87,1.71-.73,3.24c.88-.56,1.76-1.41,2.67-2l2.88,1.62L432,159l2.41-2.07c-1.31-.2-2.09.21-3.64-.06-.06-1.06,0-.53-.36-1.37-.46-1.17-.07-.59-.79-1.51l-.93,3.42ZM323.24,54.52l1.7,2.86L322.89,60l3.16-.77a32.77,32.77,0,0,1,2,2.86l.29-3.38a8.5,8.5,0,0,0,3.28-1.05l-3.27-1.29.4-3.21-1.18,1c-1.89,2.13-.94,1.27-4.37.34Zm38,13.77a6.16,6.16,0,0,1,2.83-1.69l-1.25,2.85c.62,1.26,1.53,1.38,2.35,2.53l-3.41-.08-1.36,2.9-.85-3.26a24.47,24.47,0,0,1-3.25-.41L359,69.31l-.36-3.21,2.61,2.19ZM417.2,123c1.23-.35,1.93-1.1,3.16-1.21-1.84,3.11-2.2,2.52.53,5.34a11,11,0,0,1-3.31-.48l-1.69,2.92a14.19,14.19,0,0,1-.57-3.28l-3.18-.76,1.49-.85c.57-.25.67-.26,1.22-.54.33-1.16-.09-2.28,0-3.47L417.2,123ZM403,80.1c1.85-.63,3.26-2.1,5-2.35l-2.29,4.87c.56,1.19,2.2,2.26,3,3.17l.7,1.11a24.7,24.7,0,0,0-5.56-.75L401.38,91l-1.09-5.44a49.5,49.5,0,0,0-5.52-1c1.44-1.15,3.16-1.7,4.79-2.63a8,8,0,0,0-.28-2.86,16.28,16.28,0,0,1-.26-2.79l4,3.79Zm-64.73,2.31c2.06-.35,3.25-.16,5.27-.69l2.71-.74c6.35-1.7,10.16-6.42,11.67-7,.09,3.14-1.42,10.09,1.06,15.55l1.83,4.54c.06,0,.05.18.06.28-4.8-1-7.26-.74-12.48-3.47-3.65-1.91-8.32-5.41-10.12-8.45ZM392.44,125c10.54,5.35,18.46,2.41,20.45,2.62a33,33,0,0,0-6.47,9.93c-1.81,4.42-1.22,6.61-1.92,10-7-5.38-12.14-13.89-12.06-22.58Zm-76.35-16.3c.25-1.46-1.18-8.69,8.88-5.19,15.09,5.26,35.26,25,45.67,37.31,3.1,3.64,5.41,7.26,7.78,10.55a45.85,45.85,0,0,1,5.63,11.15c2.57,9.94-4.21,7.13-6.23,7.29a13.66,13.66,0,0,0,7.91,1.84c3.06-.27,4.34-2.32,4-5.81-1-10.82-17.83-30.08-25.61-38a197.16,197.16,0,0,0-26.75-22.43c-4.78-3.31-11.07-7.08-16.69-7.75-8.27-1-6.62,7.06-4.62,11Zm-116.93,224v8.25h128.4v-8.25Zm0-24.6v8.25h128.4V308Zm0-24.6v8.25h128.4v-8.25Zm0-24.6v8.25h128.4v-8.25Zm0-24.6v8.25h128.4v-8.25Zm0-24.6v8.25h128.4v-8.25Zm0-24.6v8.25h128.4V185Z"/><path class="cls-3" d="M110.93,513.7V503.5l-10.47-14.78h4.41l8,11.3,8-11.3h4.41l-10.44,14.75V513.7Zm20.89.47a11,11,0,0,0,5.34-1.25,9.21,9.21,0,0,0,3.58-3.48,11.1,11.1,0,0,0,0-10.35,9.16,9.16,0,0,0-3.58-3.46,12,12,0,0,0-10.68,0,9,9,0,0,0-3.58,3.46,11,11,0,0,0,0,10.35,9.08,9.08,0,0,0,3.58,3.48,11,11,0,0,0,5.34,1.25Zm0-3.4a6.75,6.75,0,0,1-3.35-.8,5.52,5.52,0,0,1-2.19-2.25,8.11,8.11,0,0,1,0-6.9,5.56,5.56,0,0,1,2.19-2.24,6.65,6.65,0,0,1,3.35-.8,6.57,6.57,0,0,1,3.35.8,5.47,5.47,0,0,1,2.18,2.24,8.11,8.11,0,0,1,0,6.9,5.44,5.44,0,0,1-2.18,2.25,6.67,6.67,0,0,1-3.35.8Zm20.08,3.4A6.94,6.94,0,0,1,148,513.1a6.7,6.7,0,0,1-2.47-3.06,12.13,12.13,0,0,1-.86-4.77V494.84h3.85v9.77a7,7,0,0,0,1.2,4.44,4.11,4.11,0,0,0,3.44,1.52,4.86,4.86,0,0,0,2.8-.8,5.23,5.23,0,0,0,1.82-2.28,8.6,8.6,0,0,0,.65-3.45v-9.2h3.84v12.73l1,6.13h-3.85l-.64-4.49-.3.64a8.2,8.2,0,0,1-2.75,3.2,6.77,6.77,0,0,1-3.79,1.12Zm13.57-19.33h3.85l.76,5.22a10.73,10.73,0,0,1,1.33-2.92,6.47,6.47,0,0,1,2.14-2,5.83,5.83,0,0,1,3-.73,10.1,10.1,0,0,1,1.21.08,6,6,0,0,1,1.1.25v3.8a9.6,9.6,0,0,0-1.42-.3,10.83,10.83,0,0,0-1.45-.1,5.15,5.15,0,0,0-4.9,3.18,9.37,9.37,0,0,0-.72,3.88v8.53h-3.85V500.87l-1-6Zm22.93-6.12h3.9v25h-3.9v-25Zm7.21,6.12h3.85l.67,4.53a7.32,7.32,0,0,1,.33-.69,8.45,8.45,0,0,1,2.81-3.19,7,7,0,0,1,3.85-1.11,7.26,7.26,0,0,1,4,1.06,6.76,6.76,0,0,1,2.53,3.05,11.69,11.69,0,0,1,.88,4.78V513.7H210.7V504a7,7,0,0,0-1.23-4.48,4.34,4.34,0,0,0-3.59-1.51,5.07,5.07,0,0,0-2.86.81,5.32,5.32,0,0,0-1.89,2.28,8.34,8.34,0,0,0-.67,3.44v9.19h-3.84V501l-1-6.17ZM225.9,510,232,494.84h4.11L228,513.7h-4.32l-8.16-18.86h4.23L225.9,510Zm20.62,4.22a11,11,0,0,1-5.34-1.25,9.15,9.15,0,0,1-3.58-3.48,11,11,0,0,1,0-10.35,9.1,9.1,0,0,1,3.58-3.46,12,12,0,0,1,10.68,0,9.1,9.1,0,0,1,3.58,3.46,11,11,0,0,1,0,10.35,9.15,9.15,0,0,1-3.58,3.48,11,11,0,0,1-5.34,1.25Zm0-3.4a6.74,6.74,0,0,0,3.36-.8,5.47,5.47,0,0,0,2.17-2.25,8.11,8.11,0,0,0,0-6.9,5.51,5.51,0,0,0-2.17-2.24,7.41,7.41,0,0,0-6.7,0,5.43,5.43,0,0,0-2.19,2.24,8.11,8.11,0,0,0,0,6.9,5.4,5.4,0,0,0,2.19,2.25,6.71,6.71,0,0,0,3.34.8Zm13.07-16.06,1.92.4,1.93-.4v19h-3.85v-19Zm1.92-2.36a2.47,2.47,0,0,1-1.8-.69,2.59,2.59,0,0,1,0-3.56,2.75,2.75,0,0,1,3.62,0,2.61,2.61,0,0,1,0,3.56,2.47,2.47,0,0,1-1.82.69Zm24.23,13.92a8.56,8.56,0,0,1-1.63,4.12,9.25,9.25,0,0,1-3.4,2.78,10.58,10.58,0,0,1-4.62,1,10.2,10.2,0,0,1-5.1-1.25,9,9,0,0,1-3.45-3.48,11.38,11.38,0,0,1,0-10.33,8.88,8.88,0,0,1,3.45-3.48,10.09,10.09,0,0,1,5.1-1.25,10.44,10.44,0,0,1,4.62,1,9.06,9.06,0,0,1,3.4,2.78,8.59,8.59,0,0,1,1.63,4.15h-3.88a5.25,5.25,0,0,0-2-3.33,6.57,6.57,0,0,0-6.89-.42,5.24,5.24,0,0,0-2.06,2.23,8.75,8.75,0,0,0,0,6.95A5.35,5.35,0,0,0,273,510a6.55,6.55,0,0,0,6.92-.45,5.22,5.22,0,0,0,1.95-3.27Zm11.8,7.9a10.71,10.71,0,0,1-5.21-1.25,9.28,9.28,0,0,1-3.58-3.48,10.11,10.11,0,0,1-1.3-5.2,10.44,10.44,0,0,1,1.23-5.15,8.9,8.9,0,0,1,3.4-3.46,9.76,9.76,0,0,1,5-1.25,8.38,8.38,0,0,1,4.86,1.41,9.22,9.22,0,0,1,3.18,4,14.9,14.9,0,0,1,1.13,6h-14.7a6.43,6.43,0,0,0,.66,1.8,5.67,5.67,0,0,0,2.4,2.35,7.72,7.72,0,0,0,3.68.82,12.31,12.31,0,0,0,3.93-.68,11.55,11.55,0,0,0,3.55-1.92v3.13a11.21,11.21,0,0,1-3.74,2.1,13.57,13.57,0,0,1-4.48.77Zm-6.07-11.66h10.79a6.91,6.91,0,0,0-.65-2,4.92,4.92,0,0,0-4.63-2.76,5.56,5.56,0,0,0-3,.76,5.3,5.3,0,0,0-2,2.15,6.49,6.49,0,0,0-.6,1.82Zm37.69-13.79a8.91,8.91,0,0,1,4.31,1,7.05,7.05,0,0,1,2.81,2.79,9,9,0,0,1,0,8.22,7.05,7.05,0,0,1-2.81,2.79,8.91,8.91,0,0,1-4.31,1h-7.84v9.19h-3.9v-25Zm-7.84,12H329a4.35,4.35,0,0,0,3.15-1.1,4.52,4.52,0,0,0,0-6,4.35,4.35,0,0,0-3.15-1.1h-7.69v8.2Zm33.66,13-.43-4.67-.25.44a9.86,9.86,0,0,1-3.21,3.46,7.57,7.57,0,0,1-4.24,1.24,7.73,7.73,0,0,1-4.35-1.25,8.5,8.5,0,0,1-3-3.48,13.16,13.16,0,0,1,0-10.35,8.44,8.44,0,0,1,3-3.46,8.06,8.06,0,0,1,8.59,0,10.15,10.15,0,0,1,3.23,3.45c.08.14.16.27.24.42l.42-4.64h4l-.89,9.43.89,9.43Zm-12.6-9.43a7.57,7.57,0,0,0,.7,3.35,5.55,5.55,0,0,0,1.91,2.27,4.86,4.86,0,0,0,2.78.81,5.65,5.65,0,0,0,3-.81,8.23,8.23,0,0,0,2.42-2.27,12.21,12.21,0,0,0,1.67-3.35,12.35,12.35,0,0,0-1.67-3.35,8.19,8.19,0,0,0-2.42-2.26,5.56,5.56,0,0,0-3-.82,4.79,4.79,0,0,0-2.78.82,5.52,5.52,0,0,0-1.91,2.26,7.6,7.6,0,0,0-.7,3.35Zm19.2-9.43h3.84l.77,5.22a10.43,10.43,0,0,1,1.32-2.92,6.56,6.56,0,0,1,2.14-2,5.83,5.83,0,0,1,3-.73,10.26,10.26,0,0,1,1.22.08,5.86,5.86,0,0,1,1.09.25v3.8a9.34,9.34,0,0,0-1.42-.3,10.72,10.72,0,0,0-1.45-.1,5.15,5.15,0,0,0-4.9,3.18,9.37,9.37,0,0,0-.72,3.88v8.53h-3.85V500.87l-1-6Zm13.78,3.34v-2l3.58-1,1.6-5.27h2.25v4.93h7.78v3.34h-7.78v8.16a4.79,4.79,0,0,0,.9,3.31,3.92,3.92,0,0,0,2.94,1,7.41,7.41,0,0,0,2.31-.32,7.66,7.66,0,0,0,1.92-.91v3.56a10.47,10.47,0,0,1-2.17.84,10.78,10.78,0,0,1-2.89.4,7.56,7.56,0,0,1-4-.92,5.39,5.39,0,0,1-2.21-2.53,9.42,9.42,0,0,1-.69-3.72v-8.82Zm17.24-3.34h3.85l.67,4.53c.1-.24.22-.47.33-.69a8.38,8.38,0,0,1,2.82-3.19,6.9,6.9,0,0,1,3.84-1.11,7.31,7.31,0,0,1,4,1.06,6.81,6.81,0,0,1,2.52,3.05,11.69,11.69,0,0,1,.88,4.78V513.7h-3.85V504a7,7,0,0,0-1.23-4.48,4.33,4.33,0,0,0-3.59-1.51,5.07,5.07,0,0,0-2.86.81,5.39,5.39,0,0,0-1.89,2.28,8.34,8.34,0,0,0-.67,3.44v9.19h-3.84V501l-1-6.17Zm31.65,19.33a10.67,10.67,0,0,1-5.2-1.25,9.28,9.28,0,0,1-3.58-3.48,10.11,10.11,0,0,1-1.3-5.2,10.54,10.54,0,0,1,1.22-5.15,8.93,8.93,0,0,1,3.41-3.46,9.75,9.75,0,0,1,5-1.25,8.39,8.39,0,0,1,4.87,1.41,9.22,9.22,0,0,1,3.18,4,14.9,14.9,0,0,1,1.12,6h-14.7a6.43,6.43,0,0,0,.66,1.8,5.78,5.78,0,0,0,2.4,2.35,7.75,7.75,0,0,0,3.68.82,12.33,12.33,0,0,0,3.94-.68,11.78,11.78,0,0,0,3.55-1.92v3.13a11.31,11.31,0,0,1-3.74,2.1,13.63,13.63,0,0,1-4.49.77Zm-6.06-11.66H429a6.62,6.62,0,0,0-.65-2,5.08,5.08,0,0,0-1.86-2.05,5.17,5.17,0,0,0-2.77-.71,5.55,5.55,0,0,0-2.94.76,5.26,5.26,0,0,0-2,2.15,6.17,6.17,0,0,0-.59,1.82Zm16.86-7.67h3.84l.77,5.22a10.43,10.43,0,0,1,1.32-2.92,6.5,6.5,0,0,1,2.15-2,5.76,5.76,0,0,1,2.95-.73,10.26,10.26,0,0,1,1.22.08,5.86,5.86,0,0,1,1.09.25v3.8a9.34,9.34,0,0,0-1.42-.3,10.61,10.61,0,0,0-1.45-.1,5.38,5.38,0,0,0-2.9.8,5.3,5.3,0,0,0-2,2.38,9.2,9.2,0,0,0-.73,3.88v8.53h-3.85V500.87l-1-6ZM448.89,514a2.22,2.22,0,0,0,1.23-.37,2.67,2.67,0,0,0,.87-1,3.07,3.07,0,0,0,0-2.77,2.67,2.67,0,0,0-.87-1,2.23,2.23,0,0,0-2.46,0,2.67,2.67,0,0,0-.87,1,3.07,3.07,0,0,0,0,2.77,2.67,2.67,0,0,0,.87,1,2.22,2.22,0,0,0,1.23.37Zm7.36,0a2.22,2.22,0,0,1-1.23-.37,2.67,2.67,0,0,1-.87-1,3.07,3.07,0,0,1,0-2.77,2.67,2.67,0,0,1,.87-1,2.23,2.23,0,0,1,2.46,0,2.67,2.67,0,0,1,.87,1,3.07,3.07,0,0,1,0,2.77,2.67,2.67,0,0,1-.87,1,2.22,2.22,0,0,1-1.23.37Zm7.36,0a2.22,2.22,0,0,1-1.23-.37,2.67,2.67,0,0,1-.87-1,3.16,3.16,0,0,1,0-2.77,2.67,2.67,0,0,1,.87-1,2.14,2.14,0,0,1,1.23-.37,2.1,2.1,0,0,1,1.23.37,2.59,2.59,0,0,1,.87,1,3.07,3.07,0,0,1,0,2.77,2.59,2.59,0,0,1-.87,1A2.17,2.17,0,0,1,463.61,514Z"/></svg>